<mxfile host="app.diagrams.net" agent="Mozilla/5.0 (X11; Linux x86_64) AppleWebKit/537.36 (KHTML, like Gecko) Chrome/129.0.0.0 Safari/537.36" version="27.0.4">
  <diagram name="Page-1" id="2NRblXa9HJyOhYyd98Tk">
    <mxGraphModel dx="1040" dy="613" grid="1" gridSize="10" guides="1" tooltips="1" connect="1" arrows="1" fold="1" page="1" pageScale="1" pageWidth="1654" pageHeight="1169" math="0" shadow="0">
      <root>
        <mxCell id="0" />
        <mxCell id="1" parent="0" />
        <mxCell id="oxvuNANv4-jNPZop8sGj-3" value="" style="endArrow=classic;html=1;rounded=0;exitX=0.5;exitY=1;exitDx=0;exitDy=0;entryX=0.5;entryY=0;entryDx=0;entryDy=0;exitPerimeter=0;fontSize=12;labelBorderColor=none;labelBackgroundColor=default;" parent="1" source="oxvuNANv4-jNPZop8sGj-12" target="oxvuNANv4-jNPZop8sGj-7" edge="1">
          <mxGeometry width="50" height="50" relative="1" as="geometry">
            <mxPoint x="840" y="220" as="sourcePoint" />
            <mxPoint x="520" y="310" as="targetPoint" />
            <Array as="points">
              <mxPoint x="990" y="270" />
              <mxPoint x="340" y="270" />
              <mxPoint x="240" y="270" />
              <mxPoint x="150" y="270" />
            </Array>
          </mxGeometry>
        </mxCell>
        <mxCell id="oxvuNANv4-jNPZop8sGj-5" value="" style="endArrow=classic;html=1;rounded=0;entryX=0.5;entryY=0;entryDx=0;entryDy=0;fontSize=12;labelBorderColor=none;labelBackgroundColor=default;" parent="1" target="oxvuNANv4-jNPZop8sGj-8" edge="1">
          <mxGeometry width="50" height="50" relative="1" as="geometry">
            <mxPoint x="482.90999999999997" y="270" as="sourcePoint" />
            <mxPoint x="636.91" y="340" as="targetPoint" />
            <Array as="points" />
          </mxGeometry>
        </mxCell>
        <mxCell id="oxvuNANv4-jNPZop8sGj-12" value="INICIO" style="strokeWidth=2;html=1;shape=mxgraph.flowchart.start_1;whiteSpace=wrap;fontSize=30;labelBorderColor=none;labelBackgroundColor=default;" parent="1" vertex="1">
          <mxGeometry x="900" y="50" width="180" height="60" as="geometry" />
        </mxCell>
        <mxCell id="4xmTbBgC2tOL9GCdbZKI-17" value="" style="endArrow=none;html=1;rounded=0;" parent="1" edge="1">
          <mxGeometry width="50" height="50" relative="1" as="geometry">
            <mxPoint x="990" y="270" as="sourcePoint" />
            <mxPoint x="1530" y="270" as="targetPoint" />
          </mxGeometry>
        </mxCell>
        <mxCell id="oxvuNANv4-jNPZop8sGj-11" value="" style="edgeStyle=orthogonalEdgeStyle;rounded=0;orthogonalLoop=1;jettySize=auto;html=1;fontSize=12;labelBorderColor=none;labelBackgroundColor=default;" parent="1" source="oxvuNANv4-jNPZop8sGj-8" target="oxvuNANv4-jNPZop8sGj-10" edge="1">
          <mxGeometry relative="1" as="geometry" />
        </mxCell>
        <mxCell id="oxvuNANv4-jNPZop8sGj-8" value="Sensor&lt;div&gt;de luz&lt;/div&gt;" style="shape=parallelogram;html=1;strokeWidth=2;perimeter=parallelogramPerimeter;whiteSpace=wrap;rounded=1;arcSize=12;size=0.23;fontSize=12;labelBorderColor=none;labelBackgroundColor=default;container=0;" parent="1" vertex="1">
          <mxGeometry x="443.83424242424235" y="380" width="78.03030303030303" height="60" as="geometry" />
        </mxCell>
        <mxCell id="oxvuNANv4-jNPZop8sGj-14" value="" style="edgeStyle=orthogonalEdgeStyle;rounded=0;orthogonalLoop=1;jettySize=auto;html=1;entryX=0.5;entryY=0;entryDx=0;entryDy=0;fontSize=12;labelBorderColor=none;labelBackgroundColor=default;" parent="1" source="oxvuNANv4-jNPZop8sGj-10" target="oxvuNANv4-jNPZop8sGj-21" edge="1">
          <mxGeometry relative="1" as="geometry">
            <mxPoint x="560.879696969697" y="590" as="targetPoint" />
            <Array as="points">
              <mxPoint x="560.879696969697" y="535" />
            </Array>
          </mxGeometry>
        </mxCell>
        <mxCell id="oxvuNANv4-jNPZop8sGj-16" value="" style="edgeStyle=orthogonalEdgeStyle;rounded=0;orthogonalLoop=1;jettySize=auto;html=1;entryX=0.5;entryY=0;entryDx=0;entryDy=0;fontSize=12;labelBorderColor=none;labelBackgroundColor=default;" parent="1" source="oxvuNANv4-jNPZop8sGj-10" target="oxvuNANv4-jNPZop8sGj-19" edge="1">
          <mxGeometry relative="1" as="geometry">
            <mxPoint x="404.81909090909085" y="590" as="targetPoint" />
          </mxGeometry>
        </mxCell>
        <mxCell id="oxvuNANv4-jNPZop8sGj-10" value="Luz &amp;lt;700?" style="rhombus;whiteSpace=wrap;html=1;strokeWidth=2;rounded=1;arcSize=12;fontSize=12;labelBorderColor=none;labelBackgroundColor=default;container=0;" parent="1" vertex="1">
          <mxGeometry x="447.7357575757576" y="490" width="70.22727272727272" height="90" as="geometry" />
        </mxCell>
        <mxCell id="oxvuNANv4-jNPZop8sGj-17" value="SÃ­" style="text;html=1;align=center;verticalAlign=middle;resizable=0;points=[];autosize=1;strokeColor=none;fillColor=none;fontSize=12;labelBorderColor=none;labelBackgroundColor=default;container=0;" parent="1" vertex="1">
          <mxGeometry x="397.0160606060606" y="510" width="30" height="30" as="geometry" />
        </mxCell>
        <mxCell id="oxvuNANv4-jNPZop8sGj-18" value="Non" style="text;html=1;align=center;verticalAlign=middle;resizable=0;points=[];autosize=1;strokeColor=none;fillColor=none;fontSize=12;labelBorderColor=none;labelBackgroundColor=default;container=0;" parent="1" vertex="1">
          <mxGeometry x="529.6675757575757" y="510" width="50" height="30" as="geometry" />
        </mxCell>
        <mxCell id="4xmTbBgC2tOL9GCdbZKI-16" style="edgeStyle=orthogonalEdgeStyle;rounded=0;orthogonalLoop=1;jettySize=auto;html=1;exitX=0.5;exitY=1;exitDx=0;exitDy=0;" parent="1" source="oxvuNANv4-jNPZop8sGj-19" edge="1">
          <mxGeometry relative="1" as="geometry">
            <mxPoint x="485.19030303030297" y="350" as="targetPoint" />
            <Array as="points">
              <mxPoint x="404.81909090909085" y="680" />
              <mxPoint x="329.90999999999997" y="680" />
              <mxPoint x="329.90999999999997" y="350" />
            </Array>
          </mxGeometry>
        </mxCell>
        <mxCell id="oxvuNANv4-jNPZop8sGj-19" value="Acender LED" style="rounded=1;whiteSpace=wrap;html=1;absoluteArcSize=1;arcSize=14;strokeWidth=2;fontSize=12;labelBorderColor=none;labelBackgroundColor=none;container=0;" parent="1" vertex="1">
          <mxGeometry x="373.6069696969697" y="610" width="62.42424242424242" height="30" as="geometry" />
        </mxCell>
        <mxCell id="oxvuNANv4-jNPZop8sGj-22" style="edgeStyle=orthogonalEdgeStyle;rounded=0;orthogonalLoop=1;jettySize=auto;html=1;exitX=0.5;exitY=1;exitDx=0;exitDy=0;fontSize=12;labelBorderColor=none;labelBackgroundColor=default;" parent="1" source="oxvuNANv4-jNPZop8sGj-21" edge="1">
          <mxGeometry relative="1" as="geometry">
            <mxPoint x="482.84939393939396" y="350" as="targetPoint" />
            <Array as="points">
              <mxPoint x="560.879696969697" y="680" />
              <mxPoint x="638.91" y="680" />
            </Array>
          </mxGeometry>
        </mxCell>
        <mxCell id="oxvuNANv4-jNPZop8sGj-21" value="Apagar LED" style="rounded=1;whiteSpace=wrap;html=1;absoluteArcSize=1;arcSize=14;strokeWidth=2;fontSize=12;labelBorderColor=none;labelBackgroundColor=none;container=0;" parent="1" vertex="1">
          <mxGeometry x="529.6675757575757" y="610" width="62.42424242424242" height="30" as="geometry" />
        </mxCell>
        <mxCell id="vJzwNCrZHjdeElvimF-S-14" value="" style="group;movable=1;resizable=1;rotatable=1;deletable=1;editable=1;locked=0;connectable=1;" parent="1" vertex="1" connectable="0">
          <mxGeometry x="10" y="390" width="270" height="310" as="geometry" />
        </mxCell>
        <mxCell id="oxvuNANv4-jNPZop8sGj-31" value="" style="edgeStyle=orthogonalEdgeStyle;rounded=0;orthogonalLoop=1;jettySize=auto;html=1;movable=1;resizable=1;rotatable=1;deletable=1;editable=1;locked=0;connectable=1;" parent="vJzwNCrZHjdeElvimF-S-14" source="oxvuNANv4-jNPZop8sGj-7" target="oxvuNANv4-jNPZop8sGj-30" edge="1">
          <mxGeometry relative="1" as="geometry" />
        </mxCell>
        <mxCell id="oxvuNANv4-jNPZop8sGj-7" value="Sensor&lt;div&gt;temperatura&lt;/div&gt;" style="shape=parallelogram;html=1;strokeWidth=2;perimeter=parallelogramPerimeter;whiteSpace=wrap;rounded=1;arcSize=12;size=0.23;fontSize=11;labelBorderColor=none;labelBackgroundColor=none;movable=1;resizable=1;rotatable=1;deletable=1;editable=1;locked=0;connectable=1;container=0;" parent="vJzwNCrZHjdeElvimF-S-14" vertex="1">
          <mxGeometry x="99.47368421052633" y="17.22222222222223" width="85.26315789473685" height="51.666666666666664" as="geometry" />
        </mxCell>
        <mxCell id="oxvuNANv4-jNPZop8sGj-32" style="edgeStyle=orthogonalEdgeStyle;rounded=0;orthogonalLoop=1;jettySize=auto;html=1;exitX=1;exitY=0.5;exitDx=0;exitDy=0;entryX=0.5;entryY=0;entryDx=0;entryDy=0;movable=1;resizable=1;rotatable=1;deletable=1;editable=1;locked=0;connectable=1;" parent="vJzwNCrZHjdeElvimF-S-14" source="oxvuNANv4-jNPZop8sGj-30" target="4xmTbBgC2tOL9GCdbZKI-8" edge="1">
          <mxGeometry relative="1" as="geometry">
            <mxPoint x="213.15789473684208" y="189.44444444444446" as="targetPoint" />
            <Array as="points">
              <mxPoint x="216.71052631578948" y="155" />
            </Array>
          </mxGeometry>
        </mxCell>
        <mxCell id="oxvuNANv4-jNPZop8sGj-33" style="edgeStyle=orthogonalEdgeStyle;rounded=0;orthogonalLoop=1;jettySize=auto;html=1;exitX=0;exitY=0.5;exitDx=0;exitDy=0;entryX=0.5;entryY=1;entryDx=0;entryDy=0;movable=1;resizable=1;rotatable=1;deletable=1;editable=1;locked=0;connectable=1;" parent="vJzwNCrZHjdeElvimF-S-14" source="oxvuNANv4-jNPZop8sGj-30" target="4xmTbBgC2tOL9GCdbZKI-4" edge="1">
          <mxGeometry relative="1" as="geometry">
            <mxPoint x="28.42105263157896" y="198.05555555555554" as="targetPoint" />
            <Array as="points">
              <mxPoint x="78.15789473684211" y="155" />
              <mxPoint x="78.15789473684211" y="241.1111111111111" />
              <mxPoint x="35.5263157894737" y="241.1111111111111" />
            </Array>
          </mxGeometry>
        </mxCell>
        <mxCell id="oxvuNANv4-jNPZop8sGj-30" value="Temperatura&lt;div&gt;&lt;div&gt;&amp;gt;28Âº?&lt;/div&gt;&lt;/div&gt;" style="rhombus;whiteSpace=wrap;html=1;strokeWidth=2;rounded=1;arcSize=12;labelBorderColor=none;labelBackgroundColor=none;movable=1;resizable=1;rotatable=1;deletable=1;editable=1;locked=0;connectable=1;container=0;fontSize=10;" parent="vJzwNCrZHjdeElvimF-S-14" vertex="1">
          <mxGeometry x="103.0263157894737" y="118.00444444444446" width="78.15789473684211" height="86.11111111111113" as="geometry" />
        </mxCell>
        <mxCell id="oxvuNANv4-jNPZop8sGj-34" value="Non" style="text;html=1;align=center;verticalAlign=middle;resizable=1;points=[];autosize=1;strokeColor=none;fillColor=none;movable=1;rotatable=1;deletable=1;editable=1;locked=0;connectable=1;container=0;" parent="vJzwNCrZHjdeElvimF-S-14" vertex="1">
          <mxGeometry x="71.0526315789474" y="129.16666666666669" width="35.52631578947369" height="25.833333333333332" as="geometry" />
        </mxCell>
        <mxCell id="oxvuNANv4-jNPZop8sGj-35" value="SÃ­" style="text;html=1;align=center;verticalAlign=middle;resizable=1;points=[];autosize=1;strokeColor=none;fillColor=none;movable=1;rotatable=1;deletable=1;editable=1;locked=0;connectable=1;container=0;" parent="vJzwNCrZHjdeElvimF-S-14" vertex="1">
          <mxGeometry x="195.39473684210532" y="129.16666666666669" width="21.315789473684212" height="25.833333333333332" as="geometry" />
        </mxCell>
        <mxCell id="4xmTbBgC2tOL9GCdbZKI-6" value="" style="edgeStyle=orthogonalEdgeStyle;rounded=0;orthogonalLoop=1;jettySize=auto;html=1;movable=1;resizable=1;rotatable=1;deletable=1;editable=1;locked=0;connectable=1;" parent="vJzwNCrZHjdeElvimF-S-14" source="4xmTbBgC2tOL9GCdbZKI-4" target="4xmTbBgC2tOL9GCdbZKI-5" edge="1">
          <mxGeometry relative="1" as="geometry" />
        </mxCell>
        <mxCell id="4xmTbBgC2tOL9GCdbZKI-4" value="Apaga o LED" style="rounded=1;whiteSpace=wrap;html=1;absoluteArcSize=1;arcSize=14;strokeWidth=2;movable=1;resizable=1;rotatable=1;deletable=1;editable=1;locked=0;connectable=1;container=0;" parent="vJzwNCrZHjdeElvimF-S-14" vertex="1">
          <mxGeometry y="142.08333333333337" width="71.05263157894738" height="34.44444444444444" as="geometry" />
        </mxCell>
        <mxCell id="4xmTbBgC2tOL9GCdbZKI-7" style="edgeStyle=orthogonalEdgeStyle;rounded=0;orthogonalLoop=1;jettySize=auto;html=1;exitX=0.5;exitY=0;exitDx=0;exitDy=0;movable=1;resizable=1;rotatable=1;deletable=1;editable=1;locked=0;connectable=1;" parent="vJzwNCrZHjdeElvimF-S-14" source="4xmTbBgC2tOL9GCdbZKI-5" edge="1">
          <mxGeometry relative="1" as="geometry">
            <mxPoint x="142.10526315789477" as="targetPoint" />
            <mxPoint x="21.31578947368422" y="38.75" as="sourcePoint" />
            <Array as="points">
              <mxPoint x="35.5263157894737" />
            </Array>
          </mxGeometry>
        </mxCell>
        <mxCell id="4xmTbBgC2tOL9GCdbZKI-5" value="&amp;nbsp;Apagar o relÃ©&amp;nbsp;" style="rounded=1;whiteSpace=wrap;html=1;absoluteArcSize=1;arcSize=14;strokeWidth=2;movable=1;resizable=1;rotatable=1;deletable=1;editable=1;locked=0;connectable=1;container=0;" parent="vJzwNCrZHjdeElvimF-S-14" vertex="1">
          <mxGeometry y="43.05555555555554" width="71.05263157894738" height="34.44444444444444" as="geometry" />
        </mxCell>
        <mxCell id="4xmTbBgC2tOL9GCdbZKI-12" value="" style="edgeStyle=orthogonalEdgeStyle;rounded=0;orthogonalLoop=1;jettySize=auto;html=1;movable=1;resizable=1;rotatable=1;deletable=1;editable=1;locked=0;connectable=1;" parent="vJzwNCrZHjdeElvimF-S-14" source="4xmTbBgC2tOL9GCdbZKI-8" target="4xmTbBgC2tOL9GCdbZKI-11" edge="1">
          <mxGeometry relative="1" as="geometry" />
        </mxCell>
        <mxCell id="4xmTbBgC2tOL9GCdbZKI-8" value="Acender o LED" style="rounded=1;whiteSpace=wrap;html=1;absoluteArcSize=1;arcSize=14;strokeWidth=2;movable=1;resizable=1;rotatable=1;deletable=1;editable=1;locked=0;connectable=1;container=0;" parent="vJzwNCrZHjdeElvimF-S-14" vertex="1">
          <mxGeometry x="177.63157894736844" y="219.58333333333337" width="78.15789473684211" height="34.44444444444444" as="geometry" />
        </mxCell>
        <mxCell id="4xmTbBgC2tOL9GCdbZKI-13" style="edgeStyle=orthogonalEdgeStyle;rounded=0;orthogonalLoop=1;jettySize=auto;html=1;exitX=1;exitY=0.5;exitDx=0;exitDy=0;movable=1;resizable=1;rotatable=1;deletable=1;editable=1;locked=0;connectable=1;" parent="vJzwNCrZHjdeElvimF-S-14" source="4xmTbBgC2tOL9GCdbZKI-11" edge="1">
          <mxGeometry relative="1" as="geometry">
            <mxPoint x="142.10526315789477" as="targetPoint" />
            <Array as="points">
              <mxPoint x="270" y="292.7777777777778" />
              <mxPoint x="270" />
            </Array>
          </mxGeometry>
        </mxCell>
        <mxCell id="4xmTbBgC2tOL9GCdbZKI-11" value="Acender o RelÃ©" style="rounded=1;whiteSpace=wrap;html=1;absoluteArcSize=1;arcSize=14;strokeWidth=2;movable=1;resizable=1;rotatable=1;deletable=1;editable=1;locked=0;connectable=1;container=0;" parent="vJzwNCrZHjdeElvimF-S-14" vertex="1">
          <mxGeometry x="177.63157894736844" y="275.55555555555554" width="78.15789473684211" height="34.44444444444444" as="geometry" />
        </mxCell>
        <mxCell id="aADXfWWB4rtbNV3FDtXX-18" value="" style="group" parent="1" vertex="1" connectable="0">
          <mxGeometry x="710" y="270" width="248.73" height="480" as="geometry" />
        </mxCell>
        <mxCell id="4xmTbBgC2tOL9GCdbZKI-32" value="" style="edgeStyle=orthogonalEdgeStyle;rounded=0;orthogonalLoop=1;jettySize=auto;html=1;" parent="aADXfWWB4rtbNV3FDtXX-18" source="oxvuNANv4-jNPZop8sGj-23" target="4xmTbBgC2tOL9GCdbZKI-31" edge="1">
          <mxGeometry relative="1" as="geometry" />
        </mxCell>
        <mxCell id="oxvuNANv4-jNPZop8sGj-23" value="BotÃ³n A" style="shape=parallelogram;html=1;strokeWidth=2;perimeter=parallelogramPerimeter;whiteSpace=wrap;rounded=1;arcSize=12;size=0.23;fontSize=12;labelBorderColor=none;labelBackgroundColor=default;" parent="aADXfWWB4rtbNV3FDtXX-18" vertex="1">
          <mxGeometry x="34.01146088359691" y="43.636363636363626" width="71.17643318177478" height="52.363636363636374" as="geometry" />
        </mxCell>
        <mxCell id="4xmTbBgC2tOL9GCdbZKI-18" value="" style="endArrow=classic;html=1;rounded=0;entryX=0.5;entryY=0;entryDx=0;entryDy=0;" parent="aADXfWWB4rtbNV3FDtXX-18" target="oxvuNANv4-jNPZop8sGj-23" edge="1">
          <mxGeometry width="50" height="50" relative="1" as="geometry">
            <mxPoint x="69.59967747448432" as="sourcePoint" />
            <mxPoint x="169.24668392896888" y="-10.472727272727298" as="targetPoint" />
            <Array as="points">
              <mxPoint x="69.59967747448432" y="15.70909090909089" />
            </Array>
          </mxGeometry>
        </mxCell>
        <mxCell id="4xmTbBgC2tOL9GCdbZKI-22" value="" style="edgeStyle=orthogonalEdgeStyle;rounded=0;orthogonalLoop=1;jettySize=auto;html=1;" parent="aADXfWWB4rtbNV3FDtXX-18" source="4xmTbBgC2tOL9GCdbZKI-19" target="4xmTbBgC2tOL9GCdbZKI-21" edge="1">
          <mxGeometry relative="1" as="geometry" />
        </mxCell>
        <mxCell id="4xmTbBgC2tOL9GCdbZKI-19" value="Acender o LED 5 seg" style="rounded=1;whiteSpace=wrap;html=1;strokeWidth=2;arcSize=12;labelBorderColor=none;labelBackgroundColor=default;" parent="aADXfWWB4rtbNV3FDtXX-18" vertex="1">
          <mxGeometry x="98.07025074719405" y="274.909090909091" width="85.41171981812974" height="30.545454545454547" as="geometry" />
        </mxCell>
        <mxCell id="4xmTbBgC2tOL9GCdbZKI-23" style="edgeStyle=orthogonalEdgeStyle;rounded=0;orthogonalLoop=1;jettySize=auto;html=1;exitX=0.5;exitY=1;exitDx=0;exitDy=0;" parent="aADXfWWB4rtbNV3FDtXX-18" source="4xmTbBgC2tOL9GCdbZKI-21" edge="1">
          <mxGeometry relative="1" as="geometry">
            <mxPoint x="69.59967747448432" y="17.45454545454544" as="targetPoint" />
            <Array as="points">
              <mxPoint x="141.07564481256563" y="480" />
              <mxPoint x="248.73" y="480" />
              <mxPoint x="248.73" y="18" />
            </Array>
          </mxGeometry>
        </mxCell>
        <mxCell id="4xmTbBgC2tOL9GCdbZKI-21" value="Emite o son da microbit RINGTONE" style="rounded=1;whiteSpace=wrap;html=1;strokeWidth=2;arcSize=12;labelBorderColor=none;labelBackgroundColor=none;" parent="aADXfWWB4rtbNV3FDtXX-18" vertex="1">
          <mxGeometry x="98.06827362405012" y="390" width="85.41666262598959" height="59.45" as="geometry" />
        </mxCell>
        <mxCell id="4xmTbBgC2tOL9GCdbZKI-33" style="edgeStyle=orthogonalEdgeStyle;rounded=0;orthogonalLoop=1;jettySize=auto;html=1;exitX=1;exitY=0.5;exitDx=0;exitDy=0;entryX=1;entryY=0.5;entryDx=0;entryDy=0;" parent="aADXfWWB4rtbNV3FDtXX-18" source="4xmTbBgC2tOL9GCdbZKI-31" target="4xmTbBgC2tOL9GCdbZKI-19" edge="1">
          <mxGeometry relative="1" as="geometry" />
        </mxCell>
        <mxCell id="vJzwNCrZHjdeElvimF-S-2" style="edgeStyle=orthogonalEdgeStyle;rounded=0;orthogonalLoop=1;jettySize=auto;html=1;exitX=0;exitY=0.5;exitDx=0;exitDy=0;" parent="aADXfWWB4rtbNV3FDtXX-18" source="4xmTbBgC2tOL9GCdbZKI-31" edge="1">
          <mxGeometry relative="1" as="geometry">
            <mxPoint x="55.36439083812921" y="194.61818181818182" as="targetPoint" />
          </mxGeometry>
        </mxCell>
        <mxCell id="4xmTbBgC2tOL9GCdbZKI-31" value="&amp;nbsp;Pulsa&amp;nbsp;&lt;div&gt;botÃ³n A&lt;/div&gt;" style="rhombus;whiteSpace=wrap;html=1;strokeWidth=2;rounded=1;arcSize=12;labelBorderColor=none;labelBackgroundColor=none;fontSize=10;" parent="aADXfWWB4rtbNV3FDtXX-18" vertex="1">
          <mxGeometry x="112.30553738354917" y="159.70909090909095" width="56.94114654541983" height="69.81818181818183" as="geometry" />
        </mxCell>
        <mxCell id="4xmTbBgC2tOL9GCdbZKI-34" value="SÃ­" style="text;html=1;align=center;verticalAlign=middle;resizable=0;points=[];autosize=1;strokeColor=none;fillColor=none;" parent="aADXfWWB4rtbNV3FDtXX-18" vertex="1">
          <mxGeometry x="179.92314890623527" y="164.07272727272732" width="30" height="30" as="geometry" />
        </mxCell>
        <mxCell id="4xmTbBgC2tOL9GCdbZKI-36" value="Non" style="text;html=1;align=center;verticalAlign=middle;resizable=0;points=[];autosize=1;strokeColor=none;fillColor=none;" parent="aADXfWWB4rtbNV3FDtXX-18" vertex="1">
          <mxGeometry x="76.71732079266175" y="164.07272727272732" width="50" height="30" as="geometry" />
        </mxCell>
        <mxCell id="vJzwNCrZHjdeElvimF-S-4" value="Apagar LED" style="rounded=1;whiteSpace=wrap;html=1;absoluteArcSize=1;arcSize=14;strokeWidth=2;fontSize=11;labelBorderColor=none;labelBackgroundColor=none;" parent="aADXfWWB4rtbNV3FDtXX-18" vertex="1">
          <mxGeometry y="181.5272727272727" width="56.94114654541983" height="26.181818181818187" as="geometry" />
        </mxCell>
        <mxCell id="aADXfWWB4rtbNV3FDtXX-20" value="" style="endArrow=classic;html=1;rounded=0;entryX=0.5;entryY=0;entryDx=0;entryDy=0;" parent="1" target="xN4Cog_gqze1hHkCptbu-3" edge="1">
          <mxGeometry width="50" height="50" relative="1" as="geometry">
            <mxPoint x="1530" y="270" as="sourcePoint" />
            <mxPoint x="1530" y="300" as="targetPoint" />
            <Array as="points" />
          </mxGeometry>
        </mxCell>
        <mxCell id="xN4Cog_gqze1hHkCptbu-4" value="" style="edgeStyle=orthogonalEdgeStyle;rounded=0;orthogonalLoop=1;jettySize=auto;html=1;entryX=0.5;entryY=0;entryDx=0;entryDy=0;" parent="1" target="xN4Cog_gqze1hHkCptbu-3" edge="1">
          <mxGeometry relative="1" as="geometry">
            <mxPoint x="1530" y="360" as="targetPoint" />
            <mxPoint x="1530" y="330" as="sourcePoint" />
          </mxGeometry>
        </mxCell>
        <mxCell id="xN4Cog_gqze1hHkCptbu-6" value="" style="edgeStyle=orthogonalEdgeStyle;rounded=0;orthogonalLoop=1;jettySize=auto;html=1;" parent="1" source="xN4Cog_gqze1hHkCptbu-3" target="xN4Cog_gqze1hHkCptbu-5" edge="1">
          <mxGeometry relative="1" as="geometry" />
        </mxCell>
        <mxCell id="xN4Cog_gqze1hHkCptbu-3" value="PIR" style="shape=parallelogram;perimeter=parallelogramPerimeter;whiteSpace=wrap;html=1;fixedSize=1;rounded=1;absoluteArcSize=1;arcSize=14;strokeWidth=2;" parent="1" vertex="1">
          <mxGeometry x="1490" y="365" width="80" height="35" as="geometry" />
        </mxCell>
        <mxCell id="xB7sp7zRTecsqmUxgjcV-25" style="edgeStyle=orthogonalEdgeStyle;rounded=0;orthogonalLoop=1;jettySize=auto;html=1;exitX=1;exitY=0.5;exitDx=0;exitDy=0;entryX=0.5;entryY=0;entryDx=0;entryDy=0;" edge="1" parent="1" source="xN4Cog_gqze1hHkCptbu-5" target="xB7sp7zRTecsqmUxgjcV-1">
          <mxGeometry relative="1" as="geometry">
            <mxPoint x="1550" y="540" as="targetPoint" />
            <Array as="points">
              <mxPoint x="1590" y="465" />
              <mxPoint x="1590" y="510" />
              <mxPoint x="1551" y="510" />
              <mxPoint x="1551" y="553" />
            </Array>
          </mxGeometry>
        </mxCell>
        <mxCell id="xN4Cog_gqze1hHkCptbu-5" value="Detecta?" style="rhombus;whiteSpace=wrap;html=1;rounded=1;absoluteArcSize=1;arcSize=14;strokeWidth=2;" parent="1" vertex="1">
          <mxGeometry x="1490" y="425" width="80" height="80" as="geometry" />
        </mxCell>
        <mxCell id="xN4Cog_gqze1hHkCptbu-13" style="edgeStyle=orthogonalEdgeStyle;rounded=0;orthogonalLoop=1;jettySize=auto;html=1;exitX=0;exitY=0.5;exitDx=0;exitDy=0;exitPerimeter=0;" parent="1" source="xN4Cog_gqze1hHkCptbu-10" edge="1">
          <mxGeometry relative="1" as="geometry">
            <mxPoint x="1530" y="340" as="targetPoint" />
            <Array as="points">
              <mxPoint x="1390" y="513" />
              <mxPoint x="1390" y="340" />
            </Array>
          </mxGeometry>
        </mxCell>
        <mxCell id="xN4Cog_gqze1hHkCptbu-10" value="Mostrar casa" style="strokeWidth=2;html=1;shape=mxgraph.flowchart.display;whiteSpace=wrap;" parent="1" vertex="1">
          <mxGeometry x="1410" y="488" width="80" height="50" as="geometry" />
        </mxCell>
        <mxCell id="xN4Cog_gqze1hHkCptbu-11" style="edgeStyle=orthogonalEdgeStyle;rounded=0;orthogonalLoop=1;jettySize=auto;html=1;exitX=0;exitY=0.5;exitDx=0;exitDy=0;entryX=0.5;entryY=0;entryDx=0;entryDy=0;entryPerimeter=0;" parent="1" source="xN4Cog_gqze1hHkCptbu-5" target="xN4Cog_gqze1hHkCptbu-10" edge="1">
          <mxGeometry relative="1" as="geometry" />
        </mxCell>
        <mxCell id="xN4Cog_gqze1hHkCptbu-12" value="Non" style="text;html=1;align=center;verticalAlign=middle;resizable=0;points=[];autosize=1;strokeColor=none;fillColor=none;" parent="1" vertex="1">
          <mxGeometry x="1440" y="440" width="50" height="30" as="geometry" />
        </mxCell>
        <mxCell id="xN4Cog_gqze1hHkCptbu-1" value="" style="endArrow=classic;html=1;rounded=0;" parent="1" edge="1">
          <mxGeometry width="50" height="50" relative="1" as="geometry">
            <mxPoint x="1078.73" y="270" as="sourcePoint" />
            <mxPoint x="1078.73" y="310" as="targetPoint" />
          </mxGeometry>
        </mxCell>
        <mxCell id="xN4Cog_gqze1hHkCptbu-18" value="" style="edgeStyle=orthogonalEdgeStyle;rounded=0;orthogonalLoop=1;jettySize=auto;html=1;" parent="1" source="xN4Cog_gqze1hHkCptbu-16" target="xN4Cog_gqze1hHkCptbu-17" edge="1">
          <mxGeometry relative="1" as="geometry" />
        </mxCell>
        <mxCell id="xN4Cog_gqze1hHkCptbu-16" value="P = 0" style="rounded=1;whiteSpace=wrap;html=1;absoluteArcSize=1;arcSize=14;strokeWidth=2;" parent="1" vertex="1">
          <mxGeometry x="1028.73" y="310" width="100" height="30" as="geometry" />
        </mxCell>
        <mxCell id="xN4Cog_gqze1hHkCptbu-20" value="" style="edgeStyle=orthogonalEdgeStyle;rounded=0;orthogonalLoop=1;jettySize=auto;html=1;" parent="1" source="xN4Cog_gqze1hHkCptbu-17" target="xN4Cog_gqze1hHkCptbu-19" edge="1">
          <mxGeometry relative="1" as="geometry" />
        </mxCell>
        <mxCell id="xN4Cog_gqze1hHkCptbu-17" value="servo 0Âº" style="rounded=1;whiteSpace=wrap;html=1;absoluteArcSize=1;arcSize=14;strokeWidth=2;" parent="1" vertex="1">
          <mxGeometry x="1028.73" y="370" width="100" height="30" as="geometry" />
        </mxCell>
        <mxCell id="xN4Cog_gqze1hHkCptbu-22" value="" style="edgeStyle=orthogonalEdgeStyle;rounded=0;orthogonalLoop=1;jettySize=auto;html=1;" parent="1" source="xN4Cog_gqze1hHkCptbu-19" target="xN4Cog_gqze1hHkCptbu-21" edge="1">
          <mxGeometry relative="1" as="geometry" />
        </mxCell>
        <mxCell id="xN4Cog_gqze1hHkCptbu-19" value="botÃ³n B" style="shape=parallelogram;perimeter=parallelogramPerimeter;whiteSpace=wrap;html=1;fixedSize=1;rounded=1;absoluteArcSize=1;arcSize=14;strokeWidth=2;" parent="1" vertex="1">
          <mxGeometry x="1038.73" y="440" width="80" height="30" as="geometry" />
        </mxCell>
        <mxCell id="xN4Cog_gqze1hHkCptbu-23" style="edgeStyle=orthogonalEdgeStyle;rounded=0;orthogonalLoop=1;jettySize=auto;html=1;exitX=0;exitY=0.5;exitDx=0;exitDy=0;" parent="1" source="xN4Cog_gqze1hHkCptbu-21" edge="1">
          <mxGeometry relative="1" as="geometry">
            <mxPoint x="1078.73" y="410" as="targetPoint" />
            <Array as="points">
              <mxPoint x="988.73" y="565" />
              <mxPoint x="988.73" y="410" />
            </Array>
          </mxGeometry>
        </mxCell>
        <mxCell id="xN4Cog_gqze1hHkCptbu-31" value="" style="edgeStyle=orthogonalEdgeStyle;rounded=0;orthogonalLoop=1;jettySize=auto;html=1;" parent="1" source="xN4Cog_gqze1hHkCptbu-21" target="xN4Cog_gqze1hHkCptbu-30" edge="1">
          <mxGeometry relative="1" as="geometry">
            <Array as="points">
              <mxPoint x="1143.73" y="565" />
            </Array>
          </mxGeometry>
        </mxCell>
        <mxCell id="xN4Cog_gqze1hHkCptbu-21" value="B presionado?" style="rhombus;whiteSpace=wrap;html=1;rounded=1;absoluteArcSize=1;arcSize=14;strokeWidth=2;fontSize=10;" parent="1" vertex="1">
          <mxGeometry x="1038.73" y="525" width="80" height="80" as="geometry" />
        </mxCell>
        <mxCell id="xN4Cog_gqze1hHkCptbu-24" value="Non" style="text;html=1;align=center;verticalAlign=middle;resizable=0;points=[];autosize=1;strokeColor=none;fillColor=none;" parent="1" vertex="1">
          <mxGeometry x="993.73" y="538" width="50" height="30" as="geometry" />
        </mxCell>
        <mxCell id="xN4Cog_gqze1hHkCptbu-26" value="SÃ­" style="text;html=1;align=center;verticalAlign=middle;resizable=0;points=[];autosize=1;strokeColor=none;fillColor=none;" parent="1" vertex="1">
          <mxGeometry x="1118.73" y="540" width="30" height="30" as="geometry" />
        </mxCell>
        <mxCell id="xN4Cog_gqze1hHkCptbu-36" style="edgeStyle=orthogonalEdgeStyle;rounded=0;orthogonalLoop=1;jettySize=auto;html=1;exitX=1;exitY=0.5;exitDx=0;exitDy=0;" parent="1" source="xN4Cog_gqze1hHkCptbu-30" edge="1">
          <mxGeometry relative="1" as="geometry">
            <mxPoint x="1203.73" y="700" as="targetPoint" />
            <Array as="points">
              <mxPoint x="1204.73" y="633" />
            </Array>
          </mxGeometry>
        </mxCell>
        <mxCell id="xN4Cog_gqze1hHkCptbu-30" value="p=0?" style="rhombus;whiteSpace=wrap;html=1;rounded=1;absoluteArcSize=1;arcSize=14;strokeWidth=2;fontSize=17;" parent="1" vertex="1">
          <mxGeometry x="1103.73" y="593" width="80" height="80" as="geometry" />
        </mxCell>
        <mxCell id="xN4Cog_gqze1hHkCptbu-41" style="edgeStyle=orthogonalEdgeStyle;rounded=0;orthogonalLoop=1;jettySize=auto;html=1;exitX=0.5;exitY=1;exitDx=0;exitDy=0;" parent="1" source="xN4Cog_gqze1hHkCptbu-37" edge="1">
          <mxGeometry relative="1" as="geometry">
            <mxPoint x="1080" y="490" as="targetPoint" />
            <Array as="points">
              <mxPoint x="1204" y="780" />
              <mxPoint x="1290" y="780" />
              <mxPoint x="1290" y="490" />
            </Array>
          </mxGeometry>
        </mxCell>
        <mxCell id="xN4Cog_gqze1hHkCptbu-37" value="p=1&amp;nbsp;" style="rounded=1;whiteSpace=wrap;html=1;absoluteArcSize=1;arcSize=14;strokeWidth=2;" parent="1" vertex="1">
          <mxGeometry x="1168.73" y="700" width="70" height="30" as="geometry" />
        </mxCell>
        <mxCell id="xN4Cog_gqze1hHkCptbu-39" value="Non" style="text;html=1;align=center;verticalAlign=middle;resizable=0;points=[];autosize=1;strokeColor=none;fillColor=none;" parent="1" vertex="1">
          <mxGeometry x="1060" y="610" width="50" height="30" as="geometry" />
        </mxCell>
        <mxCell id="xN4Cog_gqze1hHkCptbu-40" value="SÃ­" style="text;html=1;align=center;verticalAlign=middle;resizable=0;points=[];autosize=1;strokeColor=none;fillColor=none;" parent="1" vertex="1">
          <mxGeometry x="1178.73" y="605" width="30" height="30" as="geometry" />
        </mxCell>
        <mxCell id="xN4Cog_gqze1hHkCptbu-45" value="" style="endArrow=none;html=1;rounded=0;entryX=0;entryY=0.5;entryDx=0;entryDy=0;" parent="1" target="xN4Cog_gqze1hHkCptbu-30" edge="1">
          <mxGeometry width="50" height="50" relative="1" as="geometry">
            <mxPoint x="1210" y="780" as="sourcePoint" />
            <mxPoint x="1078.73" y="630" as="targetPoint" />
            <Array as="points">
              <mxPoint x="1070" y="780" />
              <mxPoint x="1070" y="633" />
            </Array>
          </mxGeometry>
        </mxCell>
        <mxCell id="LPhIV80lp4VqzH6I9jZU-1" value="SÃ­" style="text;html=1;align=center;verticalAlign=middle;resizable=0;points=[];autosize=1;strokeColor=none;fillColor=none;" parent="1" vertex="1">
          <mxGeometry x="1577.5" y="420" width="30" height="30" as="geometry" />
        </mxCell>
        <mxCell id="xB7sp7zRTecsqmUxgjcV-10" style="edgeStyle=orthogonalEdgeStyle;rounded=0;orthogonalLoop=1;jettySize=auto;html=1;exitX=0.5;exitY=1;exitDx=0;exitDy=0;entryX=0.5;entryY=0;entryDx=0;entryDy=0;" edge="1" parent="1" source="LPhIV80lp4VqzH6I9jZU-3" target="LPhIV80lp4VqzH6I9jZU-7">
          <mxGeometry relative="1" as="geometry" />
        </mxCell>
        <mxCell id="LPhIV80lp4VqzH6I9jZU-3" value="Neopixel vermello" style="rounded=1;whiteSpace=wrap;html=1;absoluteArcSize=1;arcSize=14;strokeWidth=2;" parent="1" vertex="1">
          <mxGeometry x="1377.5" y="710" width="100" height="30" as="geometry" />
        </mxCell>
        <mxCell id="xB7sp7zRTecsqmUxgjcV-13" value="" style="edgeStyle=orthogonalEdgeStyle;rounded=0;orthogonalLoop=1;jettySize=auto;html=1;" edge="1" parent="1" source="LPhIV80lp4VqzH6I9jZU-5" target="xB7sp7zRTecsqmUxgjcV-12">
          <mxGeometry relative="1" as="geometry" />
        </mxCell>
        <mxCell id="LPhIV80lp4VqzH6I9jZU-5" value="LED blanco" style="rounded=1;whiteSpace=wrap;html=1;absoluteArcSize=1;arcSize=14;strokeWidth=2;" parent="1" vertex="1">
          <mxGeometry x="1387.5" y="810" width="80" height="30" as="geometry" />
        </mxCell>
        <mxCell id="xB7sp7zRTecsqmUxgjcV-11" style="edgeStyle=orthogonalEdgeStyle;rounded=0;orthogonalLoop=1;jettySize=auto;html=1;exitX=0.5;exitY=1;exitDx=0;exitDy=0;" edge="1" parent="1" source="LPhIV80lp4VqzH6I9jZU-7" target="LPhIV80lp4VqzH6I9jZU-5">
          <mxGeometry relative="1" as="geometry" />
        </mxCell>
        <mxCell id="LPhIV80lp4VqzH6I9jZU-7" value="Zumbador" style="rounded=1;whiteSpace=wrap;html=1;absoluteArcSize=1;arcSize=14;strokeWidth=2;" parent="1" vertex="1">
          <mxGeometry x="1387.5" y="767" width="80" height="22" as="geometry" />
        </mxCell>
        <mxCell id="xB7sp7zRTecsqmUxgjcV-1" value="RINGTONE X2" style="rounded=1;whiteSpace=wrap;html=1;absoluteArcSize=1;arcSize=14;strokeWidth=2;" vertex="1" parent="1">
          <mxGeometry x="1507.5" y="560" width="90" height="25" as="geometry" />
        </mxCell>
        <mxCell id="xB7sp7zRTecsqmUxgjcV-19" style="edgeStyle=orthogonalEdgeStyle;rounded=0;orthogonalLoop=1;jettySize=auto;html=1;exitX=1;exitY=0.5;exitDx=0;exitDy=0;exitPerimeter=0;" edge="1" parent="1" source="xB7sp7zRTecsqmUxgjcV-2">
          <mxGeometry relative="1" as="geometry">
            <mxPoint x="1530" y="310" as="targetPoint" />
            <Array as="points">
              <mxPoint x="1630" y="616" />
              <mxPoint x="1630" y="310" />
            </Array>
          </mxGeometry>
        </mxCell>
        <mxCell id="xB7sp7zRTecsqmUxgjcV-2" value="i = 5?" style="strokeWidth=2;html=1;shape=mxgraph.flowchart.decision;whiteSpace=wrap;" vertex="1" parent="1">
          <mxGeometry x="1512.5" y="605" width="80" height="72.5" as="geometry" />
        </mxCell>
        <mxCell id="xB7sp7zRTecsqmUxgjcV-9" style="edgeStyle=orthogonalEdgeStyle;rounded=0;orthogonalLoop=1;jettySize=auto;html=1;exitX=0.5;exitY=1;exitDx=0;exitDy=0;exitPerimeter=0;entryX=0.5;entryY=0;entryDx=0;entryDy=0;" edge="1" parent="1" source="xB7sp7zRTecsqmUxgjcV-5" target="LPhIV80lp4VqzH6I9jZU-3">
          <mxGeometry relative="1" as="geometry" />
        </mxCell>
        <mxCell id="xB7sp7zRTecsqmUxgjcV-8" value="Non" style="text;html=1;align=center;verticalAlign=middle;resizable=0;points=[];autosize=1;strokeColor=none;fillColor=none;" vertex="1" parent="1">
          <mxGeometry x="1447.5" y="610" width="50" height="30" as="geometry" />
        </mxCell>
        <mxCell id="xB7sp7zRTecsqmUxgjcV-15" value="" style="edgeStyle=orthogonalEdgeStyle;rounded=0;orthogonalLoop=1;jettySize=auto;html=1;" edge="1" parent="1" source="xB7sp7zRTecsqmUxgjcV-12" target="xB7sp7zRTecsqmUxgjcV-14">
          <mxGeometry relative="1" as="geometry" />
        </mxCell>
        <mxCell id="xB7sp7zRTecsqmUxgjcV-12" value="esperar 500ms" style="rounded=1;whiteSpace=wrap;html=1;absoluteArcSize=1;arcSize=14;strokeWidth=2;" vertex="1" parent="1">
          <mxGeometry x="1380" y="860" width="95" height="30" as="geometry" />
        </mxCell>
        <mxCell id="xB7sp7zRTecsqmUxgjcV-17" style="edgeStyle=orthogonalEdgeStyle;rounded=0;orthogonalLoop=1;jettySize=auto;html=1;exitX=0.5;exitY=1;exitDx=0;exitDy=0;entryX=0.5;entryY=0;entryDx=0;entryDy=0;" edge="1" parent="1" source="xB7sp7zRTecsqmUxgjcV-14" target="xB7sp7zRTecsqmUxgjcV-16">
          <mxGeometry relative="1" as="geometry" />
        </mxCell>
        <mxCell id="xB7sp7zRTecsqmUxgjcV-14" value="apagar todo" style="rounded=1;whiteSpace=wrap;html=1;absoluteArcSize=1;arcSize=14;strokeWidth=2;" vertex="1" parent="1">
          <mxGeometry x="1380" y="920" width="95" height="30" as="geometry" />
        </mxCell>
        <mxCell id="xB7sp7zRTecsqmUxgjcV-21" style="edgeStyle=orthogonalEdgeStyle;rounded=0;orthogonalLoop=1;jettySize=auto;html=1;" edge="1" parent="1">
          <mxGeometry relative="1" as="geometry">
            <mxPoint x="1550" y="530" as="targetPoint" />
            <mxPoint x="1430" y="1050" as="sourcePoint" />
            <Array as="points">
              <mxPoint x="1430" y="1060" />
              <mxPoint x="1350" y="1060" />
              <mxPoint x="1350" y="550" />
              <mxPoint x="1510" y="550" />
              <mxPoint x="1510" y="530" />
            </Array>
          </mxGeometry>
        </mxCell>
        <mxCell id="xB7sp7zRTecsqmUxgjcV-28" value="" style="edgeStyle=orthogonalEdgeStyle;rounded=0;orthogonalLoop=1;jettySize=auto;html=1;" edge="1" parent="1" source="xB7sp7zRTecsqmUxgjcV-16" target="xB7sp7zRTecsqmUxgjcV-27">
          <mxGeometry relative="1" as="geometry" />
        </mxCell>
        <mxCell id="xB7sp7zRTecsqmUxgjcV-16" value="esperar 500ms" style="rounded=1;whiteSpace=wrap;html=1;absoluteArcSize=1;arcSize=14;strokeWidth=2;" vertex="1" parent="1">
          <mxGeometry x="1382.5" y="970" width="95" height="30" as="geometry" />
        </mxCell>
        <mxCell id="xB7sp7zRTecsqmUxgjcV-7" value="SÃ­" style="text;html=1;align=center;verticalAlign=middle;resizable=0;points=[];autosize=1;strokeColor=none;fillColor=none;" vertex="1" parent="1">
          <mxGeometry x="1577.5" y="610" width="30" height="30" as="geometry" />
        </mxCell>
        <mxCell id="xB7sp7zRTecsqmUxgjcV-24" value="" style="edgeStyle=orthogonalEdgeStyle;rounded=0;orthogonalLoop=1;jettySize=auto;html=1;exitX=0;exitY=0.5;exitDx=0;exitDy=0;exitPerimeter=0;entryX=0.5;entryY=0;entryDx=0;entryDy=0;" edge="1" parent="1" source="xB7sp7zRTecsqmUxgjcV-2" target="xB7sp7zRTecsqmUxgjcV-5">
          <mxGeometry relative="1" as="geometry">
            <mxPoint x="1513" y="641" as="sourcePoint" />
            <mxPoint x="1430" y="665" as="targetPoint" />
          </mxGeometry>
        </mxCell>
        <mxCell id="xB7sp7zRTecsqmUxgjcV-5" value="Angry" style="strokeWidth=2;html=1;shape=mxgraph.flowchart.display;whiteSpace=wrap;" vertex="1" parent="1">
          <mxGeometry x="1387.5" y="650" width="80" height="40" as="geometry" />
        </mxCell>
        <mxCell id="xB7sp7zRTecsqmUxgjcV-26" style="edgeStyle=orthogonalEdgeStyle;rounded=0;orthogonalLoop=1;jettySize=auto;html=1;exitX=0.5;exitY=1;exitDx=0;exitDy=0;entryX=0.5;entryY=0;entryDx=0;entryDy=0;entryPerimeter=0;" edge="1" parent="1" source="xB7sp7zRTecsqmUxgjcV-1" target="xB7sp7zRTecsqmUxgjcV-2">
          <mxGeometry relative="1" as="geometry" />
        </mxCell>
        <mxCell id="xB7sp7zRTecsqmUxgjcV-27" value="i = i + 1" style="rounded=1;whiteSpace=wrap;html=1;absoluteArcSize=1;arcSize=14;strokeWidth=2;" vertex="1" parent="1">
          <mxGeometry x="1382.5" y="1020" width="95" height="30" as="geometry" />
        </mxCell>
      </root>
    </mxGraphModel>
  </diagram>
</mxfile>
